<mxfile host="app.diagrams.net" modified="2024-04-12T22:57:48.900Z" agent="Mozilla/5.0 (Windows NT 10.0; Win64; x64) AppleWebKit/537.36 (KHTML, like Gecko) Chrome/123.0.0.0 Safari/537.36" etag="cxNFs6AeHtu3R0DAY1iC" version="24.2.3" type="github">
  <diagram name="PÃ¡gina-1" id="1xzDQDuumj_LDFOM6PWx">
    <mxGraphModel dx="1114" dy="1769" grid="1" gridSize="10" guides="1" tooltips="1" connect="1" arrows="1" fold="1" page="1" pageScale="1" pageWidth="827" pageHeight="1169" math="0" shadow="0">
      <root>
        <mxCell id="0" />
        <mxCell id="1" parent="0" />
        <mxCell id="Dy8oK9yQZGsrLbkZGJub-1" value="" style="whiteSpace=wrap;html=1;aspect=fixed;" vertex="1" parent="1">
          <mxGeometry x="300" y="-290" width="80" height="80" as="geometry" />
        </mxCell>
        <mxCell id="Dy8oK9yQZGsrLbkZGJub-2" value="" style="ellipse;whiteSpace=wrap;html=1;aspect=fixed;" vertex="1" parent="1">
          <mxGeometry x="130" y="-350" width="80" height="80" as="geometry" />
        </mxCell>
        <mxCell id="Dy8oK9yQZGsrLbkZGJub-3" value="" style="shape=card;whiteSpace=wrap;html=1;" vertex="1" parent="1">
          <mxGeometry x="370" y="-400" width="80" height="100" as="geometry" />
        </mxCell>
      </root>
    </mxGraphModel>
  </diagram>
</mxfile>
